<svg version="1.0" xmlns="http://www.w3.org/2000/svg"
 width="512.000000pt" height="512.000000pt" viewBox="0 0 512.000000 512.000000"
 preserveAspectRatio="xMidYMid meet">

<g transform="translate(0.000000,512.000000) scale(0.100000,-0.100000)"
fill="#e44949" stroke="none">
<path d="M2410 4590 c-269 -21 -492 -82 -735 -200 -427 -208 -750 -533 -956
-965 -133 -279 -191 -541 -191 -865 0 -321 59 -587 191 -865 199 -416 514
-741 918 -948 295 -151 586 -220 928 -219 329 1 589 60 880 202 230 112 393
229 566 407 247 253 412 536 508 868 91 318 99 712 21 1028 -56 225 -86 277
-160 277 -75 0 -120 -39 -120 -105 0 -22 12 -76 25 -120 56 -180 70 -282 70
-525 0 -195 -3 -240 -23 -338 -34 -167 -83 -310 -162 -467 -179 -357 -448
-626 -805 -805 -157 -79 -299 -128 -467 -162 -98 -20 -143 -23 -338 -23 -198
0 -239 3 -340 24 -171 35 -309 83 -465 161 -356 178 -627 449 -805 805 -79
157 -128 300 -162 467 -20 98 -23 143 -23 338 0 195 3 240 23 338 65 322 217
627 429 862 159 176 329 306 538 410 158 79 300 128 467 162 98 20 143 23 338
23 243 0 345 -14 525 -70 44 -13 98 -25 120 -25 65 1 105 46 105 119 0 56 -41
94 -130 121 -264 79 -524 109 -770 90z"/>
<path d="M3870 4423 c-59 -30 -70 -66 -70 -235 l0 -148 -147 0 c-173 0 -206
-10 -237 -74 -17 -36 -18 -43 -5 -79 26 -73 48 -82 230 -85 l159 -3 0 -147 c0
-171 11 -205 73 -235 33 -17 42 -17 79 -5 74 24 83 46 86 228 l3 158 158 4
c178 3 201 11 228 76 13 32 14 42 2 76 -26 72 -48 81 -230 84 l-159 4 0 144
c0 157 -10 201 -52 227 -40 26 -80 29 -118 10z"/>
<path d="M2445 3789 c-106 -13 -256 -65 -358 -125 -110 -65 -246 -201 -311
-311 -63 -107 -112 -252 -126 -375 -31 -264 65 -540 255 -735 l81 -82 -72 -26
c-177 -65 -362 -221 -461 -389 -29 -49 -56 -105 -59 -124 -13 -68 43 -136 112
-136 50 0 83 23 111 79 100 198 266 333 468 380 87 21 863 21 950 0 202 -47
368 -182 468 -380 45 -90 138 -107 200 -38 47 53 29 122 -67 267 -99 148 -257
275 -419 336 l-82 31 80 83 c241 248 321 603 211 929 -140 411 -547 667 -981
616z m333 -262 c109 -38 177 -82 267 -172 63 -63 90 -100 123 -165 59 -120 75
-199 70 -340 -7 -188 -64 -316 -198 -450 -137 -135 -262 -191 -450 -198 -136
-5 -213 10 -322 62 -182 87 -327 264 -372 456 -20 83 -20 237 -1 318 46 193
188 369 371 457 108 53 170 65 314 61 104 -2 137 -7 198 -29z"/>
</g>
</svg>